<?xml version="1.0" encoding="UTF-8"?>
<svg xmlns="http://www.w3.org/2000/svg" viewBox="0 0 1200 630" width="1200" height="630" role="img" aria-label="Buzzards Soft — AI-Augmented Mobile Developer">
  <defs>
    <linearGradient id="bg" x1="0" y1="0" x2="1" y2="1">
      <stop offset="0%" stop-color="#020617"/>
      <stop offset="100%" stop-color="#0f172a"/>
    </linearGradient>
    <radialGradient id="glow" cx="0.85" cy="0.15" r="0.6">
      <stop offset="0%" stop-color="#10b981" stop-opacity="0.25"/>
      <stop offset="60%" stop-color="#10b981" stop-opacity="0.05"/>
      <stop offset="100%" stop-color="#10b981" stop-opacity="0"/>
    </radialGradient>
    <radialGradient id="glow2" cx="0.1" cy="0.95" r="0.5">
      <stop offset="0%" stop-color="#f59e0b" stop-opacity="0.12"/>
      <stop offset="100%" stop-color="#f59e0b" stop-opacity="0"/>
    </radialGradient>
    <pattern id="grid" x="0" y="0" width="40" height="40" patternUnits="userSpaceOnUse">
      <circle cx="1" cy="1" r="1" fill="#94a3b8" fill-opacity="0.08"/>
    </pattern>
  </defs>

  <rect width="1200" height="630" fill="url(#bg)"/>
  <rect width="1200" height="630" fill="url(#grid)"/>
  <rect width="1200" height="630" fill="url(#glow)"/>
  <rect width="1200" height="630" fill="url(#glow2)"/>

  <line x1="0" y1="80" x2="1200" y2="80" stroke="#10b981" stroke-opacity="0.35" stroke-width="1"/>
  <line x1="0" y1="550" x2="1200" y2="550" stroke="#1e293b" stroke-width="1"/>

  <g transform="translate(80,120)">
    <g font-family="ui-monospace, SFMono-Regular, Menlo, Consolas, monospace" font-size="20" font-weight="500" fill="#10b981" letter-spacing="4">
      <text x="0" y="0">AI-AUGMENTED MOBILE DEVELOPER</text>
    </g>

    <g font-family="Geist, Inter, system-ui, sans-serif" font-weight="700" fill="#ffffff">
      <text x="0" y="120" font-size="116" letter-spacing="-3">BUZZARDS SOFT</text>
    </g>

    <g font-family="Geist, Inter, system-ui, sans-serif" font-weight="500" fill="#94a3b8">
      <text x="0" y="200" font-size="34" letter-spacing="-0.5">Flutter · Unity · AI workflow — 4+ years shipping</text>
    </g>

    <g transform="translate(0,260)" font-family="ui-monospace, SFMono-Regular, Menlo, Consolas, monospace" font-size="18" fill="#cbd5e1">
      <rect x="0" y="0" width="180" height="38" rx="6" fill="#0f172a" stroke="#1e293b"/>
      <text x="20" y="25">Claude Code</text>
      <rect x="200" y="0" width="120" height="38" rx="6" fill="#0f172a" stroke="#1e293b"/>
      <text x="220" y="25">Flutter</text>
      <rect x="340" y="0" width="100" height="38" rx="6" fill="#0f172a" stroke="#1e293b"/>
      <text x="360" y="25">Unity</text>
      <rect x="460" y="0" width="160" height="38" rx="6" fill="#0f172a" stroke="#1e293b"/>
      <text x="480" y="25">MCP servers</text>
    </g>
  </g>

  <g transform="translate(80,560)" font-family="Geist, Inter, system-ui, sans-serif" font-size="20" fill="#64748b">
    <text x="0" y="0">buzzards-soft.com</text>
  </g>

  <g transform="translate(960,120)" stroke="#10b981" stroke-opacity="0.6" fill="none" stroke-width="1.5">
    <circle cx="80" cy="80" r="80"/>
    <circle cx="80" cy="80" r="56" stroke-opacity="0.4"/>
    <circle cx="80" cy="80" r="32" stroke-opacity="0.25"/>
    <circle cx="80" cy="80" r="6" fill="#10b981" stroke="none"/>
    <line x1="80" y1="0" x2="80" y2="160" stroke-dasharray="2 6" stroke-opacity="0.3"/>
    <line x1="0" y1="80" x2="160" y2="80" stroke-dasharray="2 6" stroke-opacity="0.3"/>
  </g>
</svg>
